REM DIRINDEX 1\2\6,1\2\7,1\2\8,1\2\9,1\3\10,1\3\11,1\4\12,1\4\13,1\4\14,1\5\15,1\5\16,1\5\17
REM DIRNAME folder01,folder02,folder03,folder04,folder05,folder06,folder07,folder08,folder09,folder10,folder11,folder12,folder13,folder14,folder15,folder16,folder17
TITLE ""
FILE "1900_2_sec06_0531_0547.mp3" MP3
  TRACK 01 AUDIO
    TITLE "0:"
    INDEX 01 00:00:00
  TRACK 02 AUDIO
    TITLE "13:cjc020_3169"
    INDEX 01 00:00:19
  TRACK 03 AUDIO
    TITLE "0:"
    INDEX 01 00:01:26
  TRACK 04 AUDIO
    TITLE "14:cjc020_3170"
    INDEX 01 00:01:30
  TRACK 05 AUDIO
    TITLE "0:"
    INDEX 01 00:04:62
  TRACK 06 AUDIO
    TITLE "13:cjc020_3171"
    INDEX 01 00:05:40
  TRACK 07 AUDIO
    TITLE "0:"
    INDEX 01 00:06:53
  TRACK 08 AUDIO
    TITLE "14:cjc020_3172"
    INDEX 01 00:06:59
  TRACK 09 AUDIO
    TITLE "0:"
    INDEX 01 00:10:02
  TRACK 10 AUDIO
    TITLE "13:cjc020_3173"
    INDEX 01 00:10:57
  TRACK 11 AUDIO
    TITLE "0:"
    INDEX 01 00:11:68
  TRACK 12 AUDIO
    TITLE "14:cjc020_3174"
    INDEX 01 00:11:70
  TRACK 13 AUDIO
    TITLE "0:"
    INDEX 01 00:13:00
  TRACK 14 AUDIO
    TITLE "13:cjc020_3175"
    INDEX 01 00:13:55
  TRACK 15 AUDIO
    TITLE "0:"
    INDEX 01 00:14:58
  TRACK 16 AUDIO
    TITLE "14:cjc020_3176"
    INDEX 01 00:14:60
  TRACK 17 AUDIO
    TITLE "0:"
    INDEX 01 00:17:02
  TRACK 18 AUDIO
    TITLE "13:cjc020_3177"
    INDEX 01 00:17:59
  TRACK 19 AUDIO
    TITLE "0:"
    INDEX 01 00:18:66
  TRACK 20 AUDIO
    TITLE "14:cjc020_3178"
    INDEX 01 00:18:70
  TRACK 21 AUDIO
    TITLE "0:"
    INDEX 01 00:20:12
  TRACK 22 AUDIO
    TITLE "13:cjc020_3179"
    INDEX 01 00:20:65
  TRACK 23 AUDIO
    TITLE "0:"
    INDEX 01 00:21:66
  TRACK 24 AUDIO
    TITLE "14:cjc020_3180"
    INDEX 01 00:21:68
  TRACK 25 AUDIO
    TITLE "0:"
    INDEX 01 00:27:14
  TRACK 26 AUDIO
    TITLE "13:cjc020_3181"
    INDEX 01 00:27:71
  TRACK 27 AUDIO
    TITLE "0:"
    INDEX 01 00:28:74
  TRACK 28 AUDIO
    TITLE "14:cjc020_3182"
    INDEX 01 00:29:03
  TRACK 29 AUDIO
    TITLE "0:"
    INDEX 01 00:32:03
  TRACK 30 AUDIO
    TITLE "13:cjc020_3183"
    INDEX 01 00:32:58
  TRACK 31 AUDIO
    TITLE "0:"
    INDEX 01 00:34:00
  TRACK 32 AUDIO
    TITLE "14:cjc020_3184"
    INDEX 01 00:34:02
  TRACK 33 AUDIO
    TITLE "0:"
    INDEX 01 00:36:27
  TRACK 34 AUDIO
    TITLE "13:cjc020_3185"
    INDEX 01 00:37:07
  TRACK 35 AUDIO
    TITLE "0:"
    INDEX 01 00:38:57
  TRACK 36 AUDIO
    TITLE "14:cjc020_3186"
    INDEX 01 00:38:61
  TRACK 37 AUDIO
    TITLE "0:"
    INDEX 01 00:41:45
  TRACK 38 AUDIO
    TITLE "13:cjc020_3187"
    INDEX 01 00:42:23
  TRACK 39 AUDIO
    TITLE "0:"
    INDEX 01 00:43:44
  TRACK 40 AUDIO
    TITLE "14:cjc020_3188"
    INDEX 01 00:43:48
  TRACK 41 AUDIO
    TITLE "0:"
    INDEX 01 00:46:27
  TRACK 42 AUDIO
    TITLE "12:cjc020_3189"
    INDEX 01 00:48:00
  TRACK 43 AUDIO
    TITLE "0:"
    INDEX 01 00:49:23
  TRACK 44 AUDIO
    TITLE "13:cjc020_3190"
    INDEX 01 00:50:25
  TRACK 45 AUDIO
    TITLE "0:"
    INDEX 01 00:51:38
  TRACK 46 AUDIO
    TITLE "14:cjc020_3191"
    INDEX 01 00:51:40
  TRACK 47 AUDIO
    TITLE "0:"
    INDEX 01 00:53:45
  TRACK 48 AUDIO
    TITLE "13:cjc020_3192"
    INDEX 01 00:54:23
  TRACK 49 AUDIO
    TITLE "0:"
    INDEX 01 00:55:36
  TRACK 50 AUDIO
    TITLE "14:cjc020_3193"
    INDEX 01 00:55:42
  TRACK 51 AUDIO
    TITLE "0:"
    INDEX 01 00:58:11
  TRACK 52 AUDIO
    TITLE "13:cjc020_3194"
    INDEX 01 00:58:66
  TRACK 53 AUDIO
    TITLE "0:"
    INDEX 01 01:00:10
  TRACK 54 AUDIO
    TITLE "14:cjc020_3195"
    INDEX 01 01:00:12
  TRACK 55 AUDIO
    TITLE "0:"
    INDEX 01 01:06:02
  TRACK 56 AUDIO
    TITLE "13:cjc020_3196"
    INDEX 01 01:06:59
  TRACK 57 AUDIO
    TITLE "0:"
    INDEX 01 01:08:05
  TRACK 58 AUDIO
    TITLE "14:cjc020_3197"
    INDEX 01 01:08:09
  TRACK 59 AUDIO
    TITLE "0:"
    INDEX 01 01:10:47
  TRACK 60 AUDIO
    TITLE "13:cjc020_3198"
    INDEX 01 01:11:27
  TRACK 61 AUDIO
    TITLE "0:"
    INDEX 01 01:12:50
  TRACK 62 AUDIO
    TITLE "14:cjc020_3199"
    INDEX 01 01:12:52
  TRACK 63 AUDIO
    TITLE "0:"
    INDEX 01 01:14:66
  TRACK 64 AUDIO
    TITLE "13:cjc020_3200"
    INDEX 01 01:15:44
  TRACK 65 AUDIO
    TITLE "0:"
    INDEX 01 01:16:56
  TRACK 66 AUDIO
    TITLE "14:cjc020_3201"
    INDEX 01 01:16:61
  TRACK 67 AUDIO
    TITLE "0:"
    INDEX 01 01:20:26
  TRACK 68 AUDIO
    TITLE "13:cjc020_3202"
    INDEX 01 01:21:06
  TRACK 69 AUDIO
    TITLE "0:"
    INDEX 01 01:22:29
  TRACK 70 AUDIO
    TITLE "14:cjc020_3203"
    INDEX 01 01:22:31
  TRACK 71 AUDIO
    TITLE "0:"
    INDEX 01 01:24:41
